<svg width="19" height="18" viewBox="0 0 19 18" fill="none" xmlns="http://www.w3.org/2000/svg">
<path d="M4.09768 0.0243078C4.6573 0.0243078 5.21693 -0.00252279 5.77272 0.0281416C7.11429 0.10097 8.15305 1.15123 8.18755 2.48896C8.21438 3.56605 8.21438 7.84374 8.18755 8.92082C8.15305 10.2854 7.10279 11.3356 5.70373 11.3855C4.56531 11.4238 3.42306 11.4391 2.28465 11.3701C1.09257 11.2973 0.0384769 10.1819 0.0193117 8.99365C0.00397945 7.87056 0.00397945 3.54305 0.0193117 2.41997C0.0346439 1.22022 1.11173 0.112468 2.30764 0.031974C2.90177 -0.00635649 3.49972 0.0243078 4.09768 0.0243078ZM7.14879 4.06434C7.14879 3.57755 7.15262 3.09075 7.14879 2.60395C7.14496 1.64952 6.49334 0.99407 5.54274 1.00174C4.55381 1.0094 3.56489 1.0209 2.57596 1.04007C1.73652 1.0554 1.08107 1.64186 1.05424 2.47363C1.01974 3.55072 1.02357 7.8284 1.05807 8.90549C1.0849 9.72193 1.75569 10.3161 2.57213 10.3199C3.59172 10.3237 4.61514 10.3237 5.63473 10.3199C6.47417 10.3161 7.13729 9.65677 7.14879 8.82116C7.15646 8.3037 7.14879 4.58564 7.14879 4.06434Z" fill="white"/>
<path d="M4.11574 17.9927C3.43729 17.9927 2.75884 18.0042 2.08039 17.9889C0.934306 17.962 0.00670784 16.9999 0.00287479 15.85C-0.000958263 14.5736 -0.000958263 16.4978 0.00287479 15.2214C0.00287479 13.9987 0.846147 13.0442 2.06123 12.9982C3.44879 12.9446 4.83636 12.9407 6.22392 13.0021C7.33167 13.0519 8.20944 13.9795 8.22477 15.0872C8.24394 16.4288 8.24394 14.5698 8.22477 15.9075C8.20561 17.0421 7.27417 17.9659 6.14726 17.9927C5.47264 18.008 4.79419 17.9927 4.11574 17.9927ZM7.19752 16.4518C7.19752 15.8309 7.19752 15.8462 7.19752 15.2252C7.19752 15.1064 7.20135 14.9876 7.16685 14.8688C7.01736 14.3398 6.58039 14.0025 6.01693 14.0063C4.75586 14.014 3.49862 14.037 2.23755 14.0485C1.5476 14.0562 1.0493 14.5161 1.04163 15.2061C1.0263 16.4748 1.0263 14.543 1.04163 15.8117C1.0493 16.5055 1.53993 16.9654 2.23755 16.9693C3.49862 16.9731 4.75969 16.9769 6.01693 16.9693C6.72222 16.9654 7.19368 16.4863 7.19752 15.781C7.19752 15.1524 7.19752 17.0843 7.19752 16.4518Z" fill="white"/>
<path d="M14.3228 0.031622C14.9055 0.031622 15.4881 0.00862446 16.0669 0.0354558C17.3088 0.0967847 18.3782 1.2122 18.3935 2.45411C18.405 3.48137 18.3974 4.51246 18.3974 5.53972C18.3974 7.06144 17.3471 8.15769 15.8292 8.19219C14.8173 8.21519 13.8015 8.21519 12.7896 8.19219C11.2794 8.15769 10.2176 7.05377 10.2138 5.53972C10.21 4.56612 10.21 3.59253 10.2138 2.61893C10.2215 1.33103 11.0571 0.303769 12.3143 0.0546208C12.7628 -0.0335394 13.2228 0.0124576 13.6751 0.00862457C13.8897 0.00862457 14.1044 0.00862457 14.3228 0.00862457C14.3228 0.0162907 14.3228 0.0239558 14.3228 0.031622ZM11.2564 4.08316C11.2564 4.60829 11.2526 5.13725 11.2602 5.66238C11.2717 6.44049 11.931 7.11127 12.713 7.11894C13.7824 7.13043 14.8518 7.13043 15.9174 7.11894C16.6533 7.11127 17.3088 6.50565 17.3471 5.77353C17.4046 4.68111 17.3893 3.58869 17.3548 2.49627C17.328 1.66067 16.6878 1.05505 15.8484 1.04355C14.8135 1.02822 13.7747 1.02438 12.7398 1.04738C11.8965 1.06271 11.2641 1.7335 11.2564 2.57677C11.2526 3.07507 11.2564 3.5772 11.2564 4.08316Z" fill="white"/>
<path d="M14.7999 11.968C14.7999 12.3896 14.8037 12.8151 14.796 13.2367C14.796 13.3632 14.8152 13.4207 14.9609 13.4169C15.8271 13.3939 16.6972 13.4437 17.5673 13.39C17.8011 13.3747 18.0311 13.597 18.0541 13.8538C18.0771 14.1298 17.8548 14.3904 17.5712 14.3981C17.0307 14.4096 16.4864 14.4019 15.9459 14.4019C15.6355 14.4019 15.3212 14.4173 15.0145 14.3981C14.8229 14.3866 14.796 14.4556 14.7999 14.6243C14.8075 15.4445 14.8037 16.2686 14.8037 17.0889C14.8037 17.3956 14.6465 17.6064 14.3974 17.66C14.0371 17.7329 13.7649 17.4914 13.7611 17.0813C13.7573 16.2763 13.7496 15.4714 13.7649 14.6664C13.7688 14.4403 13.6998 14.3981 13.489 14.4019C12.661 14.4134 11.8292 14.4096 11.0013 14.4019C10.756 14.4019 10.5528 14.2256 10.503 13.9995C10.4532 13.7733 10.5797 13.528 10.7943 13.4284C10.9055 13.3747 11.0281 13.3824 11.147 13.3824C11.9442 13.3824 12.7415 13.3747 13.5388 13.3862C13.7228 13.39 13.7611 13.3364 13.7611 13.16C13.7534 12.3474 13.7573 11.5348 13.7573 10.7184C13.7573 10.4079 13.9068 10.1933 14.1521 10.1358C14.5047 10.0553 14.7922 10.2929 14.7999 10.6762C14.8037 11.1055 14.7999 11.5387 14.7999 11.968Z" fill="white"/>
</svg>
