<svg width="100" height="100" viewBox="0 0 100 100" fill="none" xmlns="http://www.w3.org/2000/svg">
<rect x="0.766403" y="0.766403" width="98.0996" height="98.0996" rx="49.0498" fill="white" stroke="#DEDEDE" stroke-width="1.53281"/>
<path d="M87.2613 49.7133C87.0964 48.3128 86.3867 47.0712 85.2627 46.2175L54.0564 22.5352C52.1644 21.1051 49.5196 21.1051 47.625 22.5374L34.0318 32.8531V28.715C34.0318 27.7817 33.2752 27.0251 32.3419 27.0251H23.1772C22.2438 27.0251 21.4872 27.7817 21.4872 28.715V42.3723L16.4212 46.2172C15.2966 47.0708 14.5869 48.3124 14.4226 49.7135C14.2598 51.1027 14.6548 52.464 15.5364 53.5487C15.5434 53.5579 15.5504 53.5659 15.5574 53.5746C16.5764 54.814 18.0471 55.4596 19.5338 55.459C20.1944 55.459 20.8573 55.3297 21.4861 55.071V79.3782C21.4861 80.3116 22.2427 81.0682 23.176 81.0682H78.506C79.4393 81.0682 80.1959 80.3116 80.1959 79.3782L80.1964 55.0669C82.2426 55.9102 84.654 55.3649 86.1262 53.5737C87.0223 52.4835 87.4254 51.1131 87.2611 49.7132L87.2613 49.7133ZM24.8668 30.4054H30.6517V35.4181L24.8668 39.8077V30.4054ZM24.8668 52.7248L50.8419 33.01L76.8169 52.7248V77.6886H69.7997V77.0641C69.7997 75.4749 68.8179 74.1132 67.4303 73.5474C67.3758 71.5002 65.6967 69.8507 63.6366 69.8507L57.3312 69.8502C55.271 69.8502 53.5924 71.4997 53.5375 73.5469C52.1498 74.1127 51.168 75.4754 51.168 77.0636V77.6881L24.8674 77.6886L24.8668 52.7248ZM53.583 77.6886V77.0641C53.583 76.3005 54.2038 75.6797 54.9673 75.6797H66.0004C66.764 75.6797 67.3853 76.3005 67.3853 77.0641V77.6886H53.583ZM56.0009 73.2656C56.1679 72.6879 56.7009 72.2649 57.3314 72.2649H63.6368C64.2673 72.2649 64.8002 72.6885 64.9672 73.2656H56.0009ZM83.5155 51.4277C83.5155 51.4277 83.5144 51.4283 83.5144 51.4288C82.9082 52.1665 81.8369 52.2926 81.0749 51.7139L51.8634 29.5421C51.2588 29.0841 50.424 29.0841 49.8201 29.5421L20.6086 51.7139C19.8521 52.2883 18.7899 52.1676 18.1815 51.4439C18.1772 51.4385 18.1729 51.4331 18.1686 51.4277C17.862 51.0554 17.7245 50.586 17.7806 50.1075C17.8372 49.6279 18.0802 49.2027 18.4655 48.9106L49.6662 25.2325C50.3484 24.7178 51.3378 24.7178 52.0162 25.2303L83.2197 48.9099C83.605 49.2019 83.8486 49.6271 83.9046 50.1067C83.9601 50.5858 83.8222 51.0551 83.5155 51.4275L83.5155 51.4277Z" fill="#0F2C64"/>
<path d="M50.5331 66.6283L51.1884 67.7626C51.5155 68.3295 52.0441 68.7348 52.6762 68.9029C52.8864 68.9584 53.0987 68.9864 53.31 68.9864C53.7351 68.9864 54.1549 68.8743 54.5327 68.655L63.5745 63.4123C63.5745 63.4123 63.5745 63.4117 63.575 63.4117C64.7401 62.736 65.14 61.2368 64.4658 60.0696L63.8105 58.9352C63.4834 58.3683 62.9553 57.9631 62.3227 57.7955C61.8377 57.6662 61.3382 57.691 60.8759 57.8553L55.9774 49.3788C56.8547 48.6276 57.1058 47.3333 56.5071 46.2981L55.8513 45.1632C55.5242 44.5968 54.9961 44.1921 54.3641 44.0235C53.733 43.8542 53.0724 43.9426 52.5065 44.2708L43.4658 49.5136C42.2992 50.1893 41.8994 51.6885 42.5745 52.8557L43.2298 53.9901C43.5569 54.557 44.085 54.9617 44.7171 55.1298C44.9272 55.1858 45.1406 55.2139 45.3524 55.2139C45.6288 55.2139 45.9021 55.1616 46.1639 55.0684L47.1808 56.8284L33.3055 64.8743C31.9524 65.6589 31.4862 67.3962 32.2612 68.7526C32.2634 68.7574 32.2666 68.7617 32.2687 68.766C32.6497 69.4251 33.2646 69.8966 34.0002 70.0927C34.2443 70.158 34.4922 70.1897 34.7385 70.1897C35.2337 70.1897 35.7224 70.0593 36.1621 69.8044L44.644 64.8856C44.6445 64.8851 44.6456 64.8851 44.6462 64.8845C44.6472 64.884 44.6478 64.8829 44.6483 64.8824L50.0316 61.7606L51.063 63.5455C50.1852 64.2983 49.9346 65.5927 50.5328 66.6284L50.5331 66.6283ZM44.4821 62.1895L44.0467 61.4362L44.8739 60.956L45.3093 61.7094L44.4821 62.1895ZM34.951 67.7162C34.8152 67.7943 34.6869 67.7765 34.6217 67.7604C34.5581 67.7431 34.4401 67.6946 34.3615 67.5637C34.3598 67.5615 34.3593 67.5594 34.3577 67.5567C34.2375 67.3492 34.3087 67.0819 34.5156 66.9623L41.958 62.647L42.3934 63.4003L34.951 67.7162ZM47.398 60.4985L46.9626 59.7452L48.3885 58.9185L48.8239 59.6724L47.398 60.4985ZM53.129 62.2973L48.2747 53.8972L53.9108 50.6284L58.765 59.029L57.3785 59.833L53.129 62.2973ZM62.3761 61.2777C62.3858 61.2939 62.3804 61.3149 62.3642 61.3241L53.2794 66.5549L52.6354 65.3748L61.7208 60.1439L62.3761 61.2777ZM45.3196 52.7823L44.6762 51.6022L53.7616 46.3713L54.4169 47.5062C54.4266 47.5224 54.4212 47.5434 54.405 47.5525H54.4056L53.9594 47.8096C53.8813 47.8354 53.8042 47.8683 53.732 47.9103L46.4522 52.1303L45.3196 52.7823Z" fill="#0F2C64"/>
</svg>
