<svg width="17" height="17" viewBox="0 0 17 17" fill="none" xmlns="http://www.w3.org/2000/svg">
<path d="M11.7295 2.68737C11.8991 2.51775 12.1005 2.38319 12.3221 2.29139C12.5437 2.19959 12.7813 2.15234 13.0212 2.15234C13.261 2.15234 13.4986 2.19959 13.7202 2.29139C13.9418 2.38319 14.1432 2.51775 14.3128 2.68737C14.4824 2.85699 14.617 3.05837 14.7088 3.27999C14.8006 3.50162 14.8479 3.73915 14.8479 3.97904C14.8479 4.21892 14.8006 4.45646 14.7088 4.67808C14.617 4.89971 14.4824 5.10108 14.3128 5.2707L5.59408 13.9895L2.04199 14.9582L3.01074 11.4061L11.7295 2.68737Z" stroke="#0F2C64" stroke-width="1.29167" stroke-linecap="round" stroke-linejoin="round"/>
</svg>
