<svg width="20" height="20" viewBox="0 0 20 20" fill="none" xmlns="http://www.w3.org/2000/svg">
<path d="M11.078 1.82508e-06C11.372 1.82508e-06 11.635 0.182995 11.734 0.456986L12.4399 2.41392C12.6929 2.47692 12.9099 2.53991 13.0939 2.60591C13.2949 2.67791 13.5539 2.78691 13.8739 2.9359L15.5178 2.06593C15.652 1.99484 15.8056 1.96918 15.9556 1.9928C16.1057 2.01642 16.244 2.08804 16.3498 2.19693L17.7958 3.69187C17.9877 3.89087 18.0417 4.18186 17.9338 4.43585L17.1628 6.24279C17.2908 6.47778 17.3928 6.67877 17.4708 6.84677C17.5548 7.02976 17.6588 7.28175 17.7828 7.60674L19.5797 8.37671C19.8497 8.49171 20.0167 8.7617 19.9987 9.05069L19.8667 11.1256C19.8577 11.2604 19.8093 11.3896 19.7275 11.4971C19.6457 11.6047 19.5342 11.6859 19.4067 11.7306L17.7048 12.3356C17.6558 12.5706 17.6048 12.7716 17.5508 12.9416C17.4637 13.2041 17.3642 13.4624 17.2528 13.7155L18.1077 15.6055C18.1681 15.7383 18.1843 15.8869 18.1541 16.0296C18.1239 16.1723 18.0488 16.3015 17.9397 16.3984L16.3138 17.8504C16.2067 17.9456 16.0731 18.0058 15.9308 18.023C15.7886 18.0401 15.6445 18.0134 15.5178 17.9464L13.8419 17.0584C13.5797 17.1972 13.3092 17.3198 13.0319 17.4254L12.2999 17.6994L11.65 19.4993C11.6018 19.6311 11.5149 19.7453 11.4007 19.8269C11.2865 19.9084 11.1503 19.9535 11.01 19.9563L9.11005 19.9993C8.96602 20.0031 8.82436 19.9621 8.70456 19.8821C8.58475 19.802 8.49271 19.6868 8.44108 19.5523L7.6751 17.5254C7.41376 17.4361 7.155 17.3394 6.89913 17.2354C6.68985 17.1448 6.48374 17.0471 6.28115 16.9424L4.38122 17.7544C4.25603 17.8078 4.11801 17.8237 3.98397 17.8C3.84993 17.7764 3.72564 17.7144 3.62624 17.6214L2.22029 16.3024C2.11562 16.2047 2.04433 16.0765 2.01651 15.936C1.9887 15.7954 2.00576 15.6497 2.0653 15.5195L2.88227 13.7395C2.77362 13.5287 2.67288 13.3139 2.58028 13.0955C2.47218 12.8283 2.37214 12.5578 2.28029 12.2846L0.490351 11.7396C0.344856 11.6956 0.217954 11.6048 0.129353 11.4813C0.0407512 11.3578 -0.00459114 11.2085 0.000367456 11.0566L0.070365 9.13569C0.0753475 9.01035 0.1145 8.88877 0.183589 8.78407C0.252678 8.67938 0.349074 8.59557 0.462352 8.54171L2.34029 7.63974C2.42728 7.32075 2.50328 7.07276 2.57028 6.89176C2.66462 6.65002 2.76938 6.41247 2.88427 6.17979L2.0703 4.45985C2.00852 4.32923 1.98977 4.1824 2.01672 4.04045C2.04367 3.8985 2.11494 3.76876 2.22029 3.66988L3.62424 2.34392C3.72266 2.2511 3.8458 2.18869 3.97886 2.16421C4.11191 2.13973 4.2492 2.15421 4.37422 2.20593L6.27215 2.9899C6.48214 2.8499 6.67214 2.73691 6.84413 2.64591C7.04912 2.53691 7.32312 2.42292 7.6681 2.29992L8.32808 0.458986C8.37687 0.324259 8.46606 0.207876 8.58346 0.125729C8.70087 0.0435812 8.84077 -0.000326239 8.98406 1.82508e-06H11.078ZM10.588 1.37695H9.47504L8.87006 3.0709C8.83449 3.16967 8.77694 3.25907 8.70176 3.33234C8.62658 3.40562 8.53573 3.46086 8.43608 3.49388C8.00009 3.63888 7.6851 3.76387 7.50111 3.86087C7.30612 3.96387 7.05712 4.12086 6.76113 4.33085C6.66426 4.39884 6.55178 4.44127 6.43414 4.4542C6.3165 4.46714 6.19749 4.45016 6.08816 4.40485L4.25822 3.64988L3.54525 4.32385L4.28822 5.8938C4.3327 5.98721 4.35528 6.08953 4.35424 6.19298C4.3532 6.29643 4.32857 6.39828 4.28222 6.49078C4.08223 6.89176 3.94723 7.18775 3.87923 7.36975C3.77496 7.67271 3.68486 7.98036 3.60924 8.29172C3.58412 8.38916 3.53798 8.47994 3.47407 8.55767C3.41016 8.6354 3.33001 8.69821 3.23926 8.7417L1.44932 9.60067L1.41332 10.5806L3.03326 11.0726C3.24826 11.1376 3.41825 11.3026 3.48925 11.5146C3.64924 11.9946 3.77724 12.3486 3.86923 12.5706C3.99113 12.8523 4.12594 13.1282 4.27322 13.3975C4.32305 13.4902 4.3507 13.5931 4.35399 13.6983C4.35729 13.8034 4.33614 13.9079 4.29222 14.0035L3.54124 15.6415L4.25222 16.3094L6.03416 15.5475C6.13014 15.5064 6.23406 15.4873 6.33836 15.4915C6.44265 15.4956 6.54472 15.5229 6.63714 15.5715C7.00213 15.7635 7.27412 15.8965 7.44611 15.9695C7.6211 16.0424 7.95609 16.1644 8.44208 16.3304C8.53855 16.3634 8.62658 16.4172 8.69986 16.4881C8.77315 16.5589 8.8299 16.6451 8.86606 16.7404L9.57404 18.6114L10.5 18.5914L11.097 16.9374C11.1311 16.843 11.1854 16.7572 11.256 16.6859C11.3266 16.6146 11.4119 16.5595 11.506 16.5244L12.5429 16.1364C12.8049 16.0394 13.1229 15.8865 13.4939 15.6765C13.5966 15.6188 13.7121 15.5878 13.8299 15.5864C13.9476 15.585 14.0639 15.6132 14.1679 15.6685L15.7448 16.5034L16.6318 15.7125L15.8558 13.9995C15.816 13.9116 15.7953 13.8162 15.7951 13.7196C15.7949 13.6231 15.8153 13.5276 15.8548 13.4395C16.0368 13.0326 16.1598 12.7256 16.2218 12.5296C16.2828 12.3376 16.3458 12.0606 16.4068 11.7046C16.4278 11.5837 16.4806 11.4705 16.5599 11.3769C16.6392 11.2832 16.742 11.2123 16.8578 11.1716L18.5057 10.5866L18.5777 9.44668L16.9578 8.7527C16.8715 8.71599 16.7936 8.66213 16.7288 8.59441C16.664 8.52668 16.6137 8.44649 16.5808 8.35871C16.4653 8.03997 16.3392 7.72514 16.2028 7.41475C16.0737 7.14449 15.9336 6.87961 15.7828 6.62077C15.7306 6.52933 15.7003 6.42703 15.6942 6.32189C15.6881 6.21676 15.7065 6.11165 15.7478 6.01479L16.4728 4.31485L15.7088 3.52488L14.2209 4.31285C14.1237 4.36437 14.0159 4.39239 13.9059 4.39464C13.796 4.3969 13.6871 4.37334 13.5879 4.32585C13.2721 4.16882 12.9491 4.02667 12.6199 3.89987C12.3393 3.80562 12.0531 3.72881 11.763 3.66988C11.6478 3.64547 11.5408 3.59219 11.452 3.51505C11.3631 3.43791 11.2953 3.33943 11.255 3.22889L10.587 1.37595L10.588 1.37695ZM10.024 5.64081C12.4589 5.64081 14.4339 7.59374 14.4339 10.0017C14.4339 12.4096 12.4589 14.3615 10.024 14.3615C7.58811 14.3615 5.61417 12.4096 5.61417 10.0017C5.61417 7.59374 7.58811 5.64181 10.024 5.64181V5.64081ZM10.024 7.01876C8.35708 7.01876 7.00613 8.35371 7.00613 10.0017C7.00613 11.6496 8.35708 12.9856 10.024 12.9856C11.69 12.9856 13.0409 11.6496 13.0409 10.0017C13.0409 8.35371 11.691 7.01876 10.024 7.01876Z" fill="#0F2C64"/>
</svg>
