<svg width="20" height="20" viewBox="0 0 20 20" fill="none" xmlns="http://www.w3.org/2000/svg">
<path d="M2.875 5.24967H4.45833M4.45833 5.24967H17.125M4.45833 5.24967V16.333C4.45833 16.7529 4.62515 17.1557 4.92208 17.4526C5.21901 17.7495 5.62174 17.9163 6.04167 17.9163H13.9583C14.3783 17.9163 14.781 17.7495 15.0779 17.4526C15.3749 17.1557 15.5417 16.7529 15.5417 16.333V5.24967H4.45833ZM6.83333 5.24967V3.66634C6.83333 3.24642 7.00015 2.84369 7.29708 2.54676C7.59401 2.24982 7.99674 2.08301 8.41667 2.08301H11.5833C12.0033 2.08301 12.406 2.24982 12.7029 2.54676C12.9999 2.84369 13.1667 3.24642 13.1667 3.66634V5.24967M8.41667 9.20801V13.958M11.5833 9.20801V13.958" stroke="#0F2C64" stroke-width="1.58333" stroke-linecap="round" stroke-linejoin="round"/>
</svg>
